<?xml version="1.0" encoding="utf-8"?>
<!-- Generator: Adobe Illustrator 15.1.0, SVG Export Plug-In . SVG Version: 6.00 Build 0)  -->
<!DOCTYPE svg PUBLIC "-//W3C//DTD SVG 1.1//EN" "http://www.w3.org/Graphics/SVG/1.1/DTD/svg11.dtd">
<svg version="1.1" id="Layer_1" xmlns="http://www.w3.org/2000/svg" xmlns:xlink="http://www.w3.org/1999/xlink" x="0px" y="0px"
	 width="342.852px" height="119px" viewBox="0 0 342.852 119" enable-background="new 0 0 342.852 119" xml:space="preserve">
<path fill-rule="evenodd" clip-rule="evenodd" fill="#2096BB" d="M92.469,35.491c-8.366-8.366-19.925-13.542-32.693-13.542
	s-24.328,5.175-32.695,13.542C18.715,43.856,13.54,55.417,13.54,68.185c0,12.768,5.175,24.328,13.541,32.694
	c8.367,8.366,19.927,13.541,32.695,13.541s24.328-5.176,32.693-13.541c8.366-8.366,13.542-19.927,13.542-32.694
	C106.01,55.417,100.834,43.856,92.469,35.491z"/>
<g>
	<defs>
		<path id="SVGID_1_" d="M92.469,35.491c-8.366-8.366-19.925-13.542-32.693-13.542s-24.328,5.175-32.695,13.542
			C18.715,43.856,13.54,55.417,13.54,68.185c0,12.768,5.175,24.328,13.541,32.694c8.367,8.366,19.927,13.541,32.695,13.541
			s24.328-5.176,32.693-13.541c8.366-8.366,13.542-19.927,13.542-32.694C106.01,55.417,100.834,43.856,92.469,35.491z"/>
	</defs>
	<clipPath id="SVGID_2_">
		<use xlink:href="#SVGID_1_"  overflow="visible"/>
	</clipPath>
	<g clip-path="url(#SVGID_2_)">
		<path fill="#FFFFFF" d="M53.333,100.568H32.656c-10.953,0-16.43-4.774-16.43-14.323c0-5.201,2.757-11.063,8.271-17.583
			c-6.035-4.58-9.053-10.907-9.053-18.98c0-6.909,2.421-12.712,7.265-17.409s11.177-7.045,19-7.045
			c13.658,0,26.265,9.241,26.265,24.454c0,6.909-2.422,12.712-7.265,17.408c-1.343,1.302-2.8,2.424-4.372,3.364
			c0.053,0.083,0.118,0.171,0.198,0.263c4.14,4.762-5.861,15.646-8.809,7.14c-0.264-1.624,0.962-3.278,3.173-2.954
			c1.537,0.245,1.658,2.564-0.449,2.272c0.035-0.15,0.656-0.108,0.859-0.633c0.782-2.02-3.365-1.211-2.511,1.798
			c1.805,4.688,8.738-1.581,3.542-5.972c-3.17,1.178-6.714,1.767-10.632,1.767c-5.365,0-10.022-1.126-13.971-3.377
			c-2.608,3.805-3.912,6.677-3.912,8.617c0,3.881,2.161,5.822,6.483,5.822h20.676c10.953,0,16.43,4.192,16.43,12.576
			c0,5.978-5.41,18.235-10.849,24.445c0.945-3.533,5.552-8.47,3.61-15.667c-0.494-1.83-0.939-3.461-2.093-4.47
			C56.928,101.073,55.345,100.568,53.333,100.568z"/>
	</g>
</g>
<path fill-rule="evenodd" clip-rule="evenodd" fill="#2096BB" d="M34.779,23.972c-1.758-7.722-2.111-10.577-3.632-13.819
	c-5.268-11.228-9.585,7.531-9.845,8.149c-1.896,4.518-9.45,3.479-15.286-1.078c3.721,4.326,7.558,7.672,13.624,7.703
	c4.585,0.362,5.447-5.293,6.838-7.761c1.582-2.903,5.051,6.3,7.045,8.227L34.779,23.972z"/>
<path fill-rule="evenodd" clip-rule="evenodd" fill="#F18F22" d="M281.255,23.318c-1.098,0-2.136,0.208-3.099,0.623
	c-0.979,0.415-1.823,0.979-2.521,1.69c-0.712,0.711-1.275,1.557-1.705,2.521c-0.415,0.979-0.622,1.987-0.622,3.069
	c0,1.097,0.207,2.12,0.622,3.083c0.43,0.949,0.993,1.779,1.705,2.491c0.697,0.712,1.542,1.275,2.521,1.69
	c0.963,0.43,2.001,0.638,3.099,0.638c1.097,0,2.135-0.208,3.099-0.638c0.979-0.415,1.823-0.979,2.55-1.69
	c0.727-0.711,1.29-1.542,1.72-2.491c0.415-0.963,0.623-1.986,0.623-3.083c0-1.082-0.208-2.09-0.623-3.069
	c-0.43-0.964-0.993-1.809-1.72-2.521s-1.571-1.275-2.55-1.69C283.39,23.525,282.352,23.318,281.255,23.318z"/>
<path fill="#FFFFFF" d="M128.565,112.741c-0.297,0-0.445-0.148-0.445-0.445c0-0.296,0.148-0.444,0.445-0.444h2.075
	c0.297,0,0.445-0.148,0.445-0.445V99.25c0-0.297-0.148-0.445-0.445-0.445h-2.075c-0.297,0-0.445-0.148-0.445-0.444
	c0-0.297,0.148-0.445,0.445-0.445h2.964c0.297,0,0.445,0.148,0.445,0.445v13.046c0,0.297,0.149,0.445,0.445,0.445h2.076
	c0.297,0,0.445,0.148,0.445,0.444c0,0.297-0.148,0.445-0.445,0.445H128.565L128.565,112.741z M130.536,95.202
	c-0.227-0.228-0.341-0.509-0.341-0.846c0-0.335,0.114-0.617,0.341-0.845c0.228-0.228,0.509-0.341,0.845-0.341
	c0.336,0,0.618,0.113,0.845,0.341s0.341,0.51,0.341,0.845c0,0.337-0.113,0.618-0.341,0.846s-0.509,0.341-0.845,0.341
	C131.045,95.543,130.764,95.43,130.536,95.202L130.536,95.202z M137.016,111.852h2.075c0.296,0,0.445-0.148,0.445-0.445V99.25
	c0-0.297-0.148-0.445-0.445-0.445h-2.075c-0.297,0-0.445-0.148-0.445-0.444c0-0.297,0.148-0.445,0.445-0.445h2.965
	c0.296,0,0.445,0.148,0.445,0.445v1.66c0,0.197,0.04,0.336,0.119,0.415s0.198,0.039,0.355-0.118c1.601-1.8,3.341-2.698,5.219-2.698
	c1.878,0,3.326,0.509,4.344,1.526c1.018,1.019,1.527,2.486,1.527,4.403v7.857c0,0.297,0.148,0.445,0.445,0.445h2.076
	c0.296,0,0.445,0.148,0.445,0.444c0,0.297-0.149,0.445-0.445,0.445h-5.634c-0.297,0-0.445-0.148-0.445-0.445
	c0-0.296,0.148-0.444,0.445-0.444h1.779c0.297,0,0.445-0.148,0.445-0.445v-7.857c0-1.681-0.435-2.94-1.305-3.78
	c-0.87-0.841-2.056-1.261-3.558-1.261c-1.502,0-2.925,0.673-4.27,2.017c-0.593,0.593-1.106,1.255-1.542,1.986v8.896
	c0,0.297,0.148,0.445,0.445,0.445h1.779c0.296,0,0.444,0.148,0.444,0.444c0,0.297-0.148,0.445-0.444,0.445h-5.634
	c-0.297,0-0.445-0.148-0.445-0.445C136.571,112,136.719,111.852,137.016,111.852L137.016,111.852z M164.087,91.688
	c0.831,0,1.552,0.158,2.165,0.475s1.077,0.632,1.394,0.948c0.317,0.316,0.475,0.534,0.475,0.652c0,0.119-0.079,0.247-0.237,0.386
	c-0.159,0.158-0.371,0.104-0.638-0.163c-0.267-0.267-0.672-0.568-1.216-0.904s-1.191-0.504-1.942-0.504
	c-1.245,0-2.199,0.391-2.861,1.171c-0.662,0.781-0.993,1.923-0.993,3.425v0.297c0,0.296,0.148,0.444,0.445,0.444h4.744
	c0.296,0,0.445,0.148,0.445,0.445c0,0.296-0.148,0.444-0.445,0.444h-4.744c-0.296,0-0.445,0.148-0.445,0.445v12.156
	c0,0.297,0.148,0.445,0.445,0.445h2.372c0.296,0,0.445,0.148,0.445,0.444c0,0.297-0.148,0.445-0.445,0.445h-6.227
	c-0.296,0-0.444-0.148-0.444-0.445c0-0.296,0.148-0.444,0.444-0.444h2.076c0.296,0,0.445-0.148,0.445-0.445V99.25
	c0-0.297-0.149-0.445-0.445-0.445h-2.076c-0.296,0-0.444-0.148-0.444-0.444c0-0.297,0.148-0.445,0.444-0.445h2.076
	c0.296,0,0.445-0.148,0.445-0.444v-0.297c0-1.779,0.405-3.139,1.215-4.077S162.545,91.688,164.087,91.688L164.087,91.688z
	 M171.114,110.902c-1.344-1.423-2.016-3.281-2.016-5.574s0.672-4.151,2.016-5.574c1.345-1.424,3.094-2.135,5.248-2.135
	c2.155,0,3.904,0.711,5.249,2.135c1.344,1.423,2.017,3.281,2.017,5.574s-0.673,4.151-2.017,5.574
	c-1.345,1.424-3.094,2.135-5.249,2.135C174.208,113.037,172.459,112.326,171.114,110.902L171.114,110.902z M176.362,98.508
	c-1.917,0-3.459,0.623-4.625,1.868c-1.166,1.246-1.749,2.901-1.749,4.967s0.578,3.717,1.734,4.952
	c1.157,1.235,2.704,1.853,4.64,1.853c1.938,0,3.484-0.617,4.641-1.853c1.157-1.235,1.735-2.887,1.735-4.952s-0.583-3.721-1.75-4.967
	C179.822,99.131,178.28,98.508,176.362,98.508L176.362,98.508z M202.041,112.147c1.72,0,3.039-0.301,3.958-0.904
	c0.92-0.603,1.379-1.389,1.379-2.357c0-1.305-0.938-2.174-2.816-2.608c-0.87-0.198-1.918-0.386-3.144-0.563
	c-1.205-0.178-2.085-0.347-2.639-0.505c-1.187-0.316-2.075-0.756-2.669-1.319c-0.593-0.563-0.89-1.363-0.89-2.401
	s0.529-1.942,1.587-2.713c1.058-0.771,2.535-1.156,4.433-1.156s3.588,0.741,5.07,2.224c0.178,0.197,0.302,0.237,0.371,0.118
	c0.068-0.118,0.104-0.257,0.104-0.415V98.36c0-0.297,0.148-0.445,0.444-0.445c0.297,0,0.445,0.148,0.445,0.445v4.744
	c0,0.296-0.148,0.444-0.445,0.444c-0.296,0-0.444-0.148-0.444-0.444v-1.482c-0.85-1.127-1.937-2.007-3.262-2.64
	c-0.691-0.316-1.473-0.475-2.343-0.475c-1.62,0-2.871,0.292-3.75,0.875c-0.88,0.583-1.32,1.319-1.32,2.209s0.381,1.577,1.143,2.062
	c0.761,0.483,1.922,0.845,3.483,1.082c0.672,0.118,1.354,0.227,2.046,0.325c0.692,0.1,1.314,0.208,1.868,0.327
	c1.146,0.257,2.036,0.651,2.669,1.186c0.632,0.534,0.948,1.35,0.948,2.446c0,1.098-0.519,2.041-1.557,2.832
	c-1.037,0.791-2.595,1.186-4.67,1.186c-1.621,0-3.123-0.475-4.507-1.423c-0.396-0.277-0.702-0.529-0.92-0.756
	c-0.217-0.228-0.355-0.282-0.415-0.164c-0.059,0.119-0.089,0.258-0.089,0.416v1.186c0,0.297-0.147,0.445-0.444,0.445
	s-0.445-0.148-0.445-0.445v-4.744c0-0.296,0.148-0.444,0.445-0.444s0.444,0.148,0.444,0.444v1.482
	c0.811,1.146,1.918,2.026,3.321,2.639C200.163,111.989,201.033,112.147,202.041,112.147L202.041,112.147z M213.397,110.902
	c-1.344-1.423-2.016-3.281-2.016-5.574s0.672-4.151,2.016-5.574c1.345-1.424,3.094-2.135,5.248-2.135
	c2.155,0,3.904,0.711,5.249,2.135c1.344,1.423,2.016,3.281,2.016,5.574s-0.672,4.151-2.016,5.574
	c-1.345,1.424-3.094,2.135-5.249,2.135C216.491,113.037,214.742,112.326,213.397,110.902L213.397,110.902z M218.646,98.508
	c-1.917,0-3.459,0.623-4.625,1.868c-1.166,1.246-1.749,2.901-1.749,4.967s0.577,3.717,1.734,4.952
	c1.156,1.235,2.703,1.853,4.64,1.853c1.938,0,3.484-0.617,4.641-1.853c1.157-1.235,1.734-2.887,1.734-4.952
	s-0.583-3.721-1.749-4.967C222.105,99.131,220.563,98.508,218.646,98.508L218.646,98.508z M228.431,112.741
	c-0.296,0-0.444-0.148-0.444-0.445c0-0.296,0.148-0.444,0.444-0.444h2.075c0.297,0,0.445-0.148,0.445-0.445V93.319
	c0-0.297-0.148-0.444-0.445-0.444h-2.075c-0.296,0-0.444-0.148-0.444-0.445s0.148-0.444,0.444-0.444h2.966
	c0.296,0,0.444,0.147,0.444,0.444v18.977c0,0.297,0.148,0.445,0.444,0.445h2.076c0.297,0,0.444,0.148,0.444,0.444
	c0,0.297-0.147,0.445-0.444,0.445H228.431L228.431,112.741z M236.14,97.915h2.966c0.297,0,0.444,0.148,0.444,0.445v8.747
	c0,1.68,0.436,2.939,1.305,3.78c0.87,0.84,2.057,1.26,3.559,1.26s2.916-0.662,4.24-1.986c0.593-0.612,1.117-1.285,1.571-2.017V99.25
	c0-0.297-0.147-0.445-0.444-0.445h-2.076c-0.296,0-0.444-0.148-0.444-0.444c0-0.297,0.148-0.445,0.444-0.445h2.965
	c0.297,0,0.445,0.148,0.445,0.445v13.046c0,0.297,0.148,0.445,0.444,0.445h2.076c0.297,0,0.444,0.148,0.444,0.444
	c0,0.297-0.147,0.445-0.444,0.445h-2.966c-0.296,0-0.444-0.148-0.444-0.445v-1.66c0-0.197-0.039-0.336-0.118-0.415
	s-0.198-0.04-0.356,0.118c-1.601,1.799-3.341,2.698-5.218,2.698c-1.878,0-3.326-0.509-4.345-1.526
	c-1.018-1.019-1.526-2.486-1.526-4.403V99.25c0-0.297-0.148-0.445-0.445-0.445h-2.076c-0.296,0-0.444-0.148-0.444-0.444
	C235.695,98.063,235.844,97.915,236.14,97.915L236.14,97.915z M265.762,110.665c0.198-0.197,0.376-0.218,0.534-0.059
	c0.158,0.158,0.237,0.286,0.237,0.385c0.02,0.099-0.05,0.228-0.207,0.386c-0.475,0.475-0.949,0.83-1.424,1.067
	c-1.226,0.415-1.928,0.618-2.105,0.607c-0.178-0.01-0.276-0.015-0.296-0.015c-1.384,0-2.472-0.444-3.262-1.334
	c-0.791-0.89-1.187-2.175-1.187-3.854V99.25c0-0.297-0.148-0.445-0.444-0.445h-2.076c-0.296,0-0.444-0.148-0.444-0.444
	c0-0.297,0.148-0.445,0.444-0.445h2.076c0.296,0,0.444-0.148,0.444-0.444V92.43c0-0.297,0.148-0.444,0.445-0.444
	c0.296,0,0.444,0.147,0.444,0.444v5.041c0,0.296,0.148,0.444,0.445,0.444h5.04c0.297,0,0.445,0.148,0.445,0.445
	c0,0.296-0.148,0.444-0.445,0.444h-5.04c-0.297,0-0.445,0.148-0.445,0.445v8.599c0,1.423,0.316,2.495,0.949,3.217
	c0.632,0.722,1.507,1.082,2.624,1.082C263.632,112.147,264.715,111.653,265.762,110.665L265.762,110.665z M268.135,112.741
	c-0.297,0-0.445-0.148-0.445-0.445c0-0.296,0.148-0.444,0.445-0.444h2.075c0.297,0,0.444-0.148,0.444-0.445V99.25
	c0-0.297-0.147-0.445-0.444-0.445h-2.075c-0.297,0-0.445-0.148-0.445-0.444c0-0.297,0.148-0.445,0.445-0.445h2.965
	c0.297,0,0.444,0.148,0.444,0.445v13.046c0,0.297,0.148,0.445,0.445,0.445h2.075c0.297,0,0.445,0.148,0.445,0.444
	c0,0.297-0.148,0.445-0.445,0.445H268.135L268.135,112.741z M270.106,95.202c-0.228-0.228-0.341-0.509-0.341-0.846
	c0-0.335,0.113-0.617,0.341-0.845s0.509-0.341,0.845-0.341s0.618,0.113,0.845,0.341c0.228,0.228,0.342,0.51,0.342,0.845
	c0,0.337-0.114,0.618-0.342,0.846c-0.227,0.228-0.509,0.341-0.845,0.341S270.334,95.43,270.106,95.202L270.106,95.202z
	 M278.602,110.902c-1.345-1.423-2.017-3.281-2.017-5.574s0.672-4.151,2.017-5.574c1.345-1.424,3.094-2.135,5.248-2.135
	s3.904,0.711,5.248,2.135c1.345,1.423,2.017,3.281,2.017,5.574s-0.672,4.151-2.017,5.574c-1.344,1.424-3.094,2.135-5.248,2.135
	S279.946,112.326,278.602,110.902L278.602,110.902z M283.85,98.508c-1.918,0-3.459,0.623-4.626,1.868
	c-1.166,1.246-1.749,2.901-1.749,4.967s0.578,3.717,1.734,4.952s2.703,1.853,4.641,1.853s3.484-0.617,4.641-1.853
	s1.734-2.887,1.734-4.952s-0.583-3.721-1.75-4.967C287.309,99.131,285.768,98.508,283.85,98.508L283.85,98.508z M294.139,111.852
	h2.076c0.296,0,0.444-0.148,0.444-0.445V99.25c0-0.297-0.148-0.445-0.444-0.445h-2.076c-0.297,0-0.444-0.148-0.444-0.444
	c0-0.297,0.147-0.445,0.444-0.445h2.965c0.297,0,0.445,0.148,0.445,0.445v1.66c0,0.197,0.039,0.336,0.118,0.415
	s0.198,0.039,0.356-0.118c1.601-1.8,3.341-2.698,5.219-2.698s3.325,0.509,4.344,1.526c1.018,1.019,1.526,2.486,1.526,4.403v7.857
	c0,0.297,0.148,0.445,0.445,0.445h2.075c0.297,0,0.445,0.148,0.445,0.444c0,0.297-0.148,0.445-0.445,0.445h-5.634
	c-0.296,0-0.444-0.148-0.444-0.445c0-0.296,0.148-0.444,0.444-0.444h1.779c0.297,0,0.445-0.148,0.445-0.445v-7.857
	c0-1.681-0.436-2.94-1.306-3.78c-0.869-0.841-2.056-1.261-3.558-1.261s-2.926,0.673-4.27,2.017
	c-0.594,0.593-1.106,1.255-1.542,1.986v8.896c0,0.297,0.148,0.445,0.444,0.445h1.779c0.297,0,0.445,0.148,0.445,0.444
	c0,0.297-0.148,0.445-0.445,0.445h-5.634c-0.297,0-0.444-0.148-0.444-0.445C293.694,112,293.842,111.852,294.139,111.852
	L294.139,111.852z M321.032,112.147c1.72,0,3.04-0.301,3.959-0.904c0.919-0.603,1.379-1.389,1.379-2.357
	c0-1.305-0.939-2.174-2.817-2.608c-0.869-0.198-1.917-0.386-3.143-0.563c-1.206-0.178-2.086-0.347-2.639-0.505
	c-1.187-0.316-2.076-0.756-2.669-1.319s-0.89-1.363-0.89-2.401s0.529-1.942,1.586-2.713c1.058-0.771,2.536-1.156,4.434-1.156
	s3.588,0.741,5.07,2.224c0.178,0.197,0.301,0.237,0.37,0.118c0.069-0.118,0.104-0.257,0.104-0.415V98.36
	c0-0.297,0.147-0.445,0.444-0.445s0.444,0.148,0.444,0.445v4.744c0,0.296-0.147,0.444-0.444,0.444s-0.444-0.148-0.444-0.444v-1.482
	c-0.851-1.127-1.938-2.007-3.262-2.64c-0.692-0.316-1.473-0.475-2.343-0.475c-1.621,0-2.871,0.292-3.751,0.875
	s-1.319,1.319-1.319,2.209s0.381,1.577,1.142,2.062c0.761,0.483,1.923,0.845,3.484,1.082c0.672,0.118,1.354,0.227,2.045,0.325
	c0.692,0.1,1.315,0.208,1.868,0.327c1.147,0.257,2.036,0.651,2.669,1.186s0.949,1.35,0.949,2.446c0,1.098-0.519,2.041-1.557,2.832
	s-2.595,1.186-4.671,1.186c-1.62,0-3.123-0.475-4.507-1.423c-0.395-0.277-0.701-0.529-0.919-0.756
	c-0.218-0.228-0.355-0.282-0.415-0.164c-0.06,0.119-0.089,0.258-0.089,0.416v1.186c0,0.297-0.148,0.445-0.444,0.445
	c-0.297,0-0.445-0.148-0.445-0.445v-4.744c0-0.296,0.148-0.444,0.445-0.444c0.296,0,0.444,0.148,0.444,0.444v1.482
	c0.811,1.146,1.917,2.026,3.321,2.639C319.154,111.989,320.024,112.147,321.032,112.147z"/>
<path fill-rule="evenodd" clip-rule="evenodd" fill="#2073B2" d="M158.216,69.604l0-12.047v0h12.023v24.581
	c-2.891,2.461-6.123,4.358-9.681,5.678c-3.558,1.305-7.265,1.972-11.12,1.972c-2.95,0-5.796-0.385-8.539-1.156
	c-2.728-0.771-5.293-1.853-7.665-3.262c-2.372-1.393-4.537-3.083-6.508-5.025c-1.972-1.957-3.647-4.137-5.041-6.523
	c-1.394-2.387-2.461-4.951-3.231-7.709c-0.771-2.743-1.156-5.604-1.156-8.555c0-2.95,0.385-5.797,1.156-8.51
	c0.771-2.728,1.838-5.277,3.231-7.665c1.394-2.387,3.069-4.566,5.041-6.523c1.972-1.957,4.136-3.617,6.508-5.011
	s4.937-2.476,7.665-3.232c2.743-0.771,5.589-1.157,8.539-1.157c3.855,0,7.562,0.653,11.12,1.972s6.79,3.217,9.681,5.678
	l-6.508,10.852c-1.883-1.913-4.047-3.41-6.509-4.492c-2.461-1.083-5.055-1.631-7.784-1.631c-2.713,0-5.277,0.519-7.665,1.557
	c-2.387,1.053-4.478,2.461-6.271,4.241c-1.794,1.779-3.217,3.869-4.255,6.256c-1.052,2.387-1.571,4.937-1.571,7.665
	c0,2.758,0.519,5.322,1.571,7.724c1.038,2.417,2.461,4.508,4.255,6.302c1.793,1.794,3.884,3.217,6.271,4.255
	c2.387,1.053,4.952,1.571,7.665,1.571c1.572,0,3.084-0.192,4.567-0.563c1.468-0.385,2.876-0.904,4.21-1.571V57.557l-8.177,6.737
	l-0.129,5.311H158.216L158.216,69.604z M197.09,77.053c0.459,0.147,0.919,0.252,1.379,0.281c0.474,0.045,0.934,0.074,1.393,0.074
	c1.157,0,2.283-0.163,3.351-0.475c1.067-0.326,2.076-0.785,3.01-1.379c0.949-0.593,1.794-1.319,2.521-2.164
	c0.741-0.86,1.35-1.809,1.809-2.847l8.688,8.732c-1.098,1.557-2.372,2.965-3.796,4.211c-1.438,1.245-2.995,2.297-4.655,3.172
	c-1.66,0.86-3.41,1.527-5.248,1.972c-1.839,0.445-3.736,0.683-5.679,0.683c-3.261,0-6.345-0.608-9.221-1.823
	c-2.892-1.217-5.412-2.921-7.562-5.086c-2.164-2.18-3.854-4.759-5.1-7.754c-1.245-2.994-1.868-6.301-1.868-9.889
	c0-3.677,0.623-7.027,1.868-10.066c1.245-3.039,2.936-5.634,5.1-7.784c2.149-2.135,4.67-3.81,7.562-4.996
	c2.876-1.187,5.96-1.779,9.221-1.779c1.942,0,3.84,0.237,5.693,0.697c1.854,0.459,3.617,1.127,5.278,2.001
	c1.66,0.86,3.217,1.927,4.67,3.188c1.452,1.26,2.728,2.668,3.825,4.24L197.09,77.053L197.09,77.053z M203.168,52.605
	c-0.549-0.208-1.097-0.326-1.631-0.385c-0.533-0.06-1.097-0.089-1.676-0.089c-1.615,0-3.143,0.296-4.581,0.889
	c-1.438,0.593-2.683,1.438-3.735,2.536c-1.053,1.097-1.883,2.431-2.491,3.973c-0.607,1.556-0.919,3.292-0.919,5.233
	c0,0.445,0.029,0.935,0.074,1.483c0.044,0.548,0.104,1.111,0.208,1.675c0.104,0.563,0.222,1.097,0.37,1.631
	c0.148,0.519,0.341,0.979,0.563,1.379L203.168,52.605L203.168,52.605z M237.134,88.438h-11.86V41.916h2.861l3.913,4.521
	c1.913-1.734,4.078-3.083,6.494-4.018c2.417-0.934,4.937-1.408,7.576-1.408c2.831,0,5.515,0.534,8.035,1.63
	c2.521,1.083,4.715,2.565,6.598,4.463c1.883,1.897,3.365,4.121,4.462,6.656c1.083,2.535,1.616,5.233,1.616,8.095v26.582h-11.846
	V61.856c0-1.216-0.237-2.373-0.696-3.455c-0.475-1.083-1.098-2.031-1.913-2.846c-0.815-0.801-1.749-1.439-2.831-1.913
	c-1.068-0.46-2.209-0.697-3.425-0.697c-1.246,0-2.417,0.237-3.514,0.697c-1.112,0.474-2.061,1.112-2.876,1.913
	c-0.801,0.815-1.438,1.764-1.913,2.846c-0.46,1.082-0.682,2.239-0.682,3.455V88.438L237.134,88.438z M287.199,88.438h-11.934V41.916
	h11.934V88.438L287.199,88.438z M314.746,77.053c0.459,0.147,0.919,0.252,1.379,0.281c0.474,0.045,0.934,0.074,1.394,0.074
	c1.156,0,2.283-0.163,3.351-0.475c1.067-0.326,2.075-0.785,3.009-1.379c0.949-0.593,1.794-1.319,2.521-2.164
	c0.741-0.86,1.35-1.809,1.809-2.847l8.688,8.732c-1.098,1.557-2.372,2.965-3.796,4.211c-1.438,1.245-2.994,2.297-4.654,3.172
	c-1.661,0.86-3.41,1.527-5.249,1.972c-1.838,0.445-3.735,0.683-5.678,0.683c-3.262,0-6.346-0.608-9.222-1.823
	c-2.891-1.217-5.411-2.921-7.562-5.086c-2.164-2.18-3.854-4.759-5.1-7.754c-1.245-2.994-1.868-6.301-1.868-9.889
	c0-3.677,0.623-7.027,1.868-10.066c1.245-3.039,2.936-5.634,5.1-7.784c2.15-2.135,4.671-3.81,7.562-4.996
	c2.876-1.187,5.96-1.779,9.222-1.779c1.942,0,3.84,0.237,5.692,0.697c1.854,0.459,3.618,1.127,5.278,2.001
	c1.66,0.86,3.217,1.927,4.67,3.188s2.729,2.668,3.825,4.24L314.746,77.053L314.746,77.053z M320.824,52.605
	c-0.549-0.208-1.097-0.326-1.631-0.385c-0.533-0.06-1.097-0.089-1.675-0.089c-1.616,0-3.144,0.296-4.581,0.889
	c-1.438,0.593-2.684,1.438-3.736,2.536c-1.053,1.097-1.883,2.431-2.491,3.973c-0.607,1.556-0.919,3.292-0.919,5.233
	c0,0.445,0.029,0.935,0.074,1.483c0.045,0.548,0.104,1.111,0.208,1.675c0.104,0.563,0.222,1.097,0.37,1.631
	c0.148,0.519,0.341,0.979,0.563,1.379L320.824,52.605z"/>
<path fill-rule="evenodd" clip-rule="evenodd" fill="#FFFFFF" d="M80.024,37.583c2.743-0.203,5.034-1.755,5.319-5.36
	c0.403,3.208,2.194,5.006,5.374,5.391c-3.134,0.244-5.015,2.201-5.315,5.263C84.977,39.699,83.21,38.02,80.024,37.583z"/>
<path fill-rule="evenodd" clip-rule="evenodd" fill="#FFFFFF" d="M75.211,56.229c5.21-0.386,9.563-3.334,10.104-10.183
	c0.765,6.096,4.167,9.51,10.207,10.242c-5.953,0.463-9.525,4.18-10.097,9.998C84.619,60.25,81.263,57.06,75.211,56.229z"/>
</svg>
