<?xml version="1.0" encoding="utf-8"?>
<!-- Generator: Adobe Illustrator 15.1.0, SVG Export Plug-In . SVG Version: 6.00 Build 0)  -->
<!DOCTYPE svg PUBLIC "-//W3C//DTD SVG 1.1//EN" "http://www.w3.org/Graphics/SVG/1.1/DTD/svg11.dtd">
<svg version="1.1" id="Layer_1" xmlns="http://www.w3.org/2000/svg" xmlns:xlink="http://www.w3.org/1999/xlink" x="0px" y="0px"
	 width="270.371px" height="292.593px" viewBox="0 0 270.371 292.593" enable-background="new 0 0 270.371 292.593"
	 xml:space="preserve">
<g>
	<path fill="none" d="M5.183,167.001c0,33.229,13.468,63.319,35.243,85.094c21.772,21.771,51.862,35.244,85.092,35.244
		c33.232,0,63.32-13.469,85.097-35.244c21.773-21.773,35.243-51.864,35.243-85.094c0-33.232-13.471-63.32-35.243-85.093
		c-21.777-21.775-51.865-35.245-85.097-35.245s-63.319,13.47-85.092,35.245C18.653,103.682,5.183,133.77,5.183,167.001z"/>
	<g>
		<g>
			<defs>
				<path id="SVGID_1_" d="M5.183,167.001c0,33.229,13.468,63.319,35.243,85.094c21.772,21.771,51.862,35.244,85.092,35.244
					c33.232,0,63.32-13.469,85.097-35.244c21.773-21.773,35.243-51.864,35.243-85.094c0-33.232-13.471-63.32-35.243-85.093
					c-21.777-21.775-51.865-35.245-85.097-35.245s-63.319,13.47-85.092,35.245C18.653,103.682,5.183,133.77,5.183,167.001z"/>
			</defs>
			<clipPath id="SVGID_2_">
				<use xlink:href="#SVGID_1_"  overflow="visible"/>
			</clipPath>
			<g clip-path="url(#SVGID_2_)">
				<path fill="#37474f" d="M129.917,255.228c-3.004,2.626-4.162,6.87-5.445,11.634c-5.055,18.731,6.936,31.581,9.396,40.776
					c-14.156-16.162-28.238-48.066-28.238-63.624c0-21.82,14.255-32.731,42.764-32.731h53.814c11.248,0,16.873-5.054,16.873-15.154
					c0-5.051-3.395-12.526-10.183-22.428c-10.277,5.857-22.397,8.789-36.361,8.789c-10.198,0-19.423-1.533-27.674-4.599
					c-13.521,11.428,4.524,27.743,9.221,15.543c2.224-7.831-8.568-9.935-6.534-4.679c0.528,1.365,2.145,1.254,2.234,1.646
					c-5.483,0.76-5.168-5.277-1.169-5.915c5.755-0.845,8.946,3.462,8.258,7.688c-7.672,22.138-33.7-6.189-22.925-18.584
					c0.209-0.238,0.377-0.467,0.516-0.684c-4.092-2.447-7.885-5.367-11.379-8.756c-12.604-12.223-18.908-27.328-18.908-45.309
					c0-39.594,32.812-63.646,68.36-63.646c20.363,0,36.848,6.111,49.453,18.336c12.606,12.225,18.908,27.327,18.908,45.31
					c0,21.012-7.854,37.481-23.563,49.401c14.352,16.973,21.526,32.228,21.526,45.764c0,24.854-14.254,37.281-42.762,37.281h-53.817
					C137.049,251.289,132.929,252.602,129.917,255.228z"/>
			</g>
		</g>
	</g>
	<path fill="#37474f" d="M193.846,55.628c5.189-5.014,14.22-28.969,18.336-21.412c3.619,6.425,5.863,21.144,17.798,20.2
		c15.789-0.08,25.773-8.789,35.459-20.049c-15.19,11.859-34.85,14.564-39.785,2.805c-0.676-1.609-11.913-50.433-25.624-21.211
		c-3.959,8.439-4.879,15.869-9.454,35.967L193.846,55.628z"/>
	<path fill="#37474f" d="M58.82,101.133c-0.783-7.97-5.676-13.063-13.835-13.698c8.276-1.003,12.937-5.681,13.985-14.032
		c0.742,9.383,6.705,13.423,13.845,13.95C64.524,88.491,59.926,92.862,58.82,101.133z"/>
	<path fill="#37474f" d="M58.757,162.061c-1.487-15.142-10.784-24.815-26.279-26.021c15.721-1.906,24.576-10.791,26.566-26.657
		c1.408,17.825,12.736,25.499,26.3,26.503C69.589,138.047,60.856,146.349,58.757,162.061z"/>
</g>
</svg>
