<?xml version="1.0" encoding="utf-8"?>
<!-- Generator: Adobe Illustrator 15.1.0, SVG Export Plug-In . SVG Version: 6.00 Build 0)  -->
<!DOCTYPE svg PUBLIC "-//W3C//DTD SVG 1.1//EN" "http://www.w3.org/Graphics/SVG/1.1/DTD/svg11.dtd">
<svg version="1.1" id="Layer_1" xmlns="http://www.w3.org/2000/svg" xmlns:xlink="http://www.w3.org/1999/xlink" x="0px" y="0px"
	 width="404.386px" height="233.333px" viewBox="0 0 404.386 233.333" enable-background="new 0 0 404.386 233.333"
	 xml:space="preserve">
<path fill="#02222D" d="M355.355,58.023c-10.969,0-19.676,4.926-28.094,9.684c-4.043,2.285-8.223,4.648-12.645,6.469
	c-9.688,3.992-22.832,6.852-38.137,8.844c-7.684-10.133-17.281-18.773-27.891-25.078c-9.43-14.984-21.98-25.082-35.895-29.02
	c1.707-2.57,2.668-5.621,2.668-8.785c0-8.77-7.133-15.902-15.902-15.902s-15.906,7.133-15.906,15.902
	c0,3.164,0.961,6.219,2.668,8.785c-13.914,3.938-26.465,14.035-35.895,29.02c-10.352,6.184-21.074,15.98-29.105,26.551
	c-43.93-2.457-77.43-5.891-78.262-5.98c-0.313-0.031-0.629-0.02-0.938,0.035l-35.336,6.18c-1.624,0.285-2.812,1.699-2.812,3.348
	c0,1.652,1.188,3.066,2.812,3.352c26.981,4.719,61.715,14.184,91.059,45.698c16.629,17.864,30.926,31.672,46.66,41
	c10.973,6.508,22.523,10.676,35.41,12.719c-7.391,3.629-13.762,8.949-20.333,14.441c-7.562,6.313-15.378,12.844-25.378,17.195
	c-1.477,0.645-2.301,2.234-1.969,3.813c0.328,1.574,1.715,2.707,3.328,2.707h128.82c1.559,0,2.918-1.063,3.297-2.574
	c0.383-1.516-0.316-3.09-1.695-3.824c-10.977-5.867-18.965-12.473-26.008-18.297c-6.324-5.227-12.188-10.066-19.051-13.434
	c29.875-4.566,49.203-19.742,81.941-45.473c5.711-4.493,12.098-9.512,18.996-14.833c8.336,9.805,20.648,15.567,33.59,15.567
	c24.293,0,44.055-19.762,44.055-44.054C399.41,77.789,379.648,58.023,355.355,58.023L355.355,58.023z"/>
</svg>
