<?xml version="1.0" encoding="iso-8859-1"?>
<!-- Generator: Adobe Illustrator 19.0.0, SVG Export Plug-In . SVG Version: 6.00 Build 0)  -->
<svg version="1.1" id="Layer_1" xmlns="http://www.w3.org/2000/svg" xmlns:xlink="http://www.w3.org/1999/xlink" x="0px" y="0px"
	 viewBox="0 0 512.001 512.001" style="enable-background:new 0 0 512.001 512.001;" xml:space="preserve">
<path style="fill:#103239;" d="M496.773,113.804c-4.247-2.451-8.095-2.679-10.873-1.065L112.897,329.504
	c2.778-1.614,6.626-1.387,10.872,1.065c8.438,4.871,15.256,16.681,15.229,26.377c-0.014,4.817-1.715,8.207-4.458,9.801
	l373.002-216.765c2.743-1.593,4.444-4.983,4.458-9.801C512.028,130.486,505.209,118.675,496.773,113.804z"/>
<path style="fill:#103239;" d="M112.898,315414a29.504L485.9,112.739c2.778-1.614,6.626-1.387,10.873,1.065L123.771,330.569
	C119.524,328.117,115.677,327.89,112.898,329.504z"/>
<path style="fill:#103239;" d="M507.543,149.982L134.542,366.747c2.743-1.593,4.444-4.983,4.458-9.801
	c0.027-9.695-6.791-21.505-15.229-26.377l373.002-216.765c8.438,4.871,15.256,16.681,15.229,26.377
	C511.986,144.999,510.286,148.388,507.543,149.982z"/>
<path style="fill:#153c44;" d="M123.771,330.569c-4.247-2.451-8.095-2.679-10.872-1.065l-55.95,32.514
	c0.008-0.005,0.019-0.008,0.028-0.014c-2.759,1.587-4.471,4.98-4.485,9.812c-0.027,9.697,6.791,21.507,15.23,26.38
	c4.514,2.606,8.565,2.678,11.373,0.715c-0.167,0.117-0.326,0.248-0.502,0.349l55.95-32.514c2.743-1.595,4.444-4.983,4.458-9.801
	C139.026,347.251,132.208,335.44,123.771,330.569z"/>
<path style="fill:#153c44;" d="M56.948,362.019l55.95-32.514c2.778-1.614,6.626-1.387,10.872,1.065l-55.95,32.514
	C63.573,360.632,59.726,360.404,56.948,362.019z"/>
<path style="fill:#153c44;" d="M134.542,366.747l-55.95,32.514c2.743-1.595,4.444-4.983,4.458-9.801
	c0.027-9.695-6.791-21.505-15.229-26.377l55.95-32.514c8.438,4.871,15.256,16.681,15.229,26.377
	C138.986,361.763,137.285,365.153,134.542,366.747z"/>
<path style="fill:#153c44;" d="M67.821,363.084c8.438,4.871,15.256,16.681,15.229,26.377c-0.027,9.697-6.89,13.608-15.328,8.737
	c-8.439-4.872-15.258-16.682-15.23-26.379C52.518,362.123,59.381,358.212,67.821,363.084z"/>
<g>
	<path style="fill:#153c44;" d="M87.812,317.082c-24.248,0-43.906-19.657-43.906-43.906c0,24.248-19.657,43.906-43.906,43.906
		c24.248,0,43.906,19.657,43.906,43.906C43.907,336.739,63.564,317.082,87.812,317.082z"/>
	<path style="fill:#153c44;" d="M112.898,286.798c-10.918,0-19.77-8.851-19.77-19.77c0,10.918-8.851,19.77-19.77,19.77
		c10.918,0,19.77,8.851,19.77,19.77C93.129,295.65,101.979,286.798,112.898,286.798z"/>
</g>
<g>
</g>
<g>
</g>
<g>
</g>
<g>
</g>
<g>
</g>
<g>
</g>
<g>
</g>
<g>
</g>
<g>
</g>
<g>
</g>
<g>
</g>
<g>
</g>
<g>
</g>
<g>
</g>
<g>
</g>
</svg>
